<?xml version="1.0" standalone="no"?><!DOCTYPE svg PUBLIC "-//W3C//DTD SVG 1.1//EN" "http://www.w3.org/Graphics/SVG/1.1/DTD/svg11.dtd"><svg t="1575547594224" class="icon" viewBox="0 0 1024 1024" version="1.1" xmlns="http://www.w3.org/2000/svg" p-id="3173" xmlns:xlink="http://www.w3.org/1999/xlink" width="200" height="200"><defs><style type="text/css"></style></defs><path d="M375.231 482.284H107.058C48.03 482.284 0.006 434.261 0.006 375.232V107.059C0.006 48.03 48.03 0.007 107.058 0.007h268.173c59.029 0 107.053 48.023 107.053 107.052v268.173c0 59.029-48.024 107.052-107.053 107.052zM107.058 65.528c-22.9 0-41.53 18.631-41.53 41.531v268.173c0 22.9 18.63 41.531 41.53 41.531h268.173c22.9 0 41.531-18.631 41.531-41.531V107.059c0-22.9-18.631-41.531-41.531-41.531H107.058zM916.941 482.284H648.768c-59.027 0-107.051-48.023-107.051-107.052V107.06C541.717 48.031 589.74 0.007 648.768 0.007h268.174c59.029 0 107.053 48.023 107.053 107.053v268.173c-0.001 59.028-48.024 107.051-107.054 107.051zM648.768 65.528c-22.9 0-41.529 18.631-41.529 41.532v268.173c0 22.9 18.629 41.53 41.529 41.53h268.174c22.9 0 41.531-18.63 41.531-41.53V107.06c0-22.9-18.631-41.532-41.531-41.532H648.768zM375.231 1023.993H107.058C48.03 1023.993 0.006 975.97 0.006 916.94V648.768c0-59.028 48.023-107.052 107.052-107.052h268.173c59.029 0 107.053 48.023 107.053 107.052V916.94c0 59.03-48.024 107.053-107.053 107.053zM107.058 607.237c-22.9 0-41.53 18.63-41.53 41.53V916.94c0 22.9 18.63 41.531 41.53 41.531h268.173c22.9 0 41.531-18.631 41.531-41.531V648.768c0-22.9-18.631-41.53-41.531-41.53H107.058zM782.855 1023.993c-132.963 0-241.139-108.175-241.139-241.14 0-132.964 108.176-241.138 241.139-241.138 132.965 0 241.139 108.174 241.139 241.138 0 132.965-108.174 241.14-241.139 241.14z m0-416.756c-96.836 0-175.617 78.781-175.617 175.616 0 96.837 78.781 175.618 175.617 175.618s175.617-78.781 175.617-175.618c0.001-96.834-78.781-175.616-175.617-175.616z" p-id="3174"></path><path d="M991.232 1023.993c-8.385 0-16.768-3.198-23.164-9.596l-61.033-61.031c-12.793-12.794-12.793-33.537 0-46.331 12.795-12.794 33.537-12.794 46.332 0l61.031 61.032c12.793 12.793 12.793 33.537 0 46.33-6.396 6.398-14.781 9.596-23.166 9.596z" p-id="3175"></path></svg>